# xmcd
#
# Track frame offsets: 
#        150
#        17909
#        34968
#        50874
#        61668
#        78834
#        94004
#        112088
#        128623
#        141995
#        158823
#        176245
#        193511
#
# Disc length: 2805 seconds
#
# Revision: 0
# Processed by: cddbd v1.5.2PL0 Copyright (c) Steve Scherf et al.
# Submitted via: ExactAudioCopy v1.1
#
DISCID=b20af30d
DTITLE=Johnny Reid - What Love is All About (Deluxe)
DYEAR=2015
DGENRE=Folk
TTITLE0=What Love is all About
TTITLE1=Honey Honey
TTITLE2=A Picture of You
TTITLE3=When the Sun Goes Down
TTITLE4=Is it Lonely Where your Heart is
TTITLE5=Out in the Rain
TTITLE6=What I'm Feeling Right Now
TTITLE7=The Rest of My Life
TTITLE8=My Heart Beats Like a Drum
TTITLE9=I Feel Like Going Home
TTITLE10=Shelter Me
TTITLE11=No Tomorrow
TTITLE12=Tattoo of Jesus
EXTD=
EXTT0=
EXTT1=
EXTT2=
EXTT3=
EXTT4=
EXTT5=
EXTT6=
EXTT7=
EXTT8=
EXTT9=
EXTT10=
EXTT11=
EXTT12=
PLAYORDER=
